<svg xmlns="http://www.w3.org/2000/svg" viewBox="0 0 628.639 323.082"><defs><style>.cls-1{fill:#3ca03d;}.cls-2{fill:#fff;}</style></defs><g id="Ebene_2" data-name="Ebene 2"><g id="design"><path class="cls-1" d="M627.24,124.4a16.76,16.76,0,0,0-3.9-9.493,29.015,29.015,0,0,0-10.553-11.7l-9.883-5.336a54.249,54.249,0,0,0-23.931-3.541,616.4,616.4,0,0,0-75.892,5.146c-13.891,1.726-27.725,3.806-41.515,6.1a341.9,341.9,0,0,0,33.339-15.546,204.553,204.553,0,0,0,30.71-21.06q2.311-1.885,4.483-3.883c11.247-10.322,14.557-25.653,9.257-38.376a37.787,37.787,0,0,0-13.241-16.13,49.7,49.7,0,0,0-21.311-8.407A1108.324,1108.324,0,0,0,369,1.988a1127.936,1127.936,0,0,0-169.06,22.37,655.79,655.79,0,0,0-86.7,24.2,38.15,38.15,0,0,0-15.361,8.058A32.21,32.21,0,0,0,86.655,68.307a25.454,25.454,0,0,0-4.488,14.735A24.414,24.414,0,0,0,84.123,98.35c4.335,9.058,11.989,17.545,23.124,21.466,9.632,3.392,21.1,5,31.582,2.611q-21.306,8.294-41.959,17.8a371.4,371.4,0,0,0-77.9,48.18q-3.7,2.993-7.25,6.111a34.118,34.118,0,0,0-9.256,38.377,37.793,37.793,0,0,0,13.241,16.13,49.709,49.709,0,0,0,21.311,8.407c12.864.525,25.621.888,38.489.483a16.664,16.664,0,0,0-.047,2.8,24.414,24.414,0,0,0,1.957,15.308,44.979,44.979,0,0,0,13.241,16.13,36.56,36.56,0,0,0,15.6,6.872,41.446,41.446,0,0,0,18.217,2c9.439-.5,18.875-1.08,28.31-1.67q36.312-2.269,72.593-5.037,41.039-3.12,82.02-6.91c.013.127.016.253.031.381,1.269,9.928,5.988,19.977,15.657,26.254a54.084,54.084,0,0,0,33.813,8.877c6.192-.475,12.565-2.039,18.5-3.174,3.213-.614,6.4-1.324,9.565-2.1,9.274-2.261,18.412-4.946,27.461-7.8,30.838-9.716,60.474-21.731,89.711-34.476q27.445-11.962,53.751-25.665a33.752,33.752,0,0,0,12.364-10.883,27.871,27.871,0,0,0,7.392-13.718q.459-5.184.917-10.367a25.015,25.015,0,0,0-5.1-14.556,18.892,18.892,0,0,0-6.621-8.065,33.76,33.76,0,0,0-13.815-8.97l-1.81-.486c13.32-3.588,26.6-7.285,39.8-11.178q3.957-1.167,7.9-2.366a38.157,38.157,0,0,0,15.361-8.058A32.214,32.214,0,0,0,623.5,149.379q2.014-4.776,4.03-9.551A24.415,24.415,0,0,0,627.24,124.4Z"/><path class="cls-2" d="M221.257,52.757l.608.974-.414,1.07.608.974q-6.891,19.733-6.309,25.864L212.558,96.9l.511-.048q-.061,2.069-1.338,2.19l.608.973a35.583,35.583,0,0,0-1.682,9.441q-.426.041-2.07,5.353a.453.453,0,0,1,.56.462q-1.021.1-3.043,5.961-3.335,2.895-3.238,3.917l-.511.048a.453.453,0,0,1-.559-.462l-.974.608q-9-2.5-9.366-6.329a.454.454,0,0,0,.462-.56l-1.022.1q-1.093-6.084-1.384-9.149l-.511.048q-6.258,15.548-10.857,15.984a46.526,46.526,0,0,1-8.856-6.378l-.048-.511q-.255-3.585.682-3.674l-.608-.973q-.012-1.03.925-1.119l-1.216-1.947q3.338-13.724,2.8-19.344l.511-.049a.453.453,0,0,0-.559-.462c.98-7.77,2.377-19.875,2.323-20.442a.453.453,0,0,1-.559-.463q.766-.072,3.382-2.384l1.533-.145a6.311,6.311,0,0,1,5.913,2.532l.511-.049.048.511-.876,1.631a.452.452,0,0,1,.559.462l-.511.049a.454.454,0,0,0,.56.462L182.7,92l.511-.049L180.459,111.8q.938-.088,3.554-6.009.766-.073,1.388-1.679l-.511.049a55.381,55.381,0,0,0,3.822-8.613q1.107-.105,1.9-1.727l-.049-.511,3.577-.34a.454.454,0,0,0,.463-.56q3.657.513,3.771,1.7l.1,1.022a.908.908,0,0,1-.925,1.119l.754,2.506.485,5.11a.907.907,0,0,1-.925,1.119l.608.974.1,1.022-.268,2.6.511-.049-.414,1.071.048.511,1.022-.1a116.3,116.3,0,0,1,3.386-13.212l-.608-.974q1.194-3.723,3.606-16.327a.453.453,0,0,1-.56-.462q1.107-.105,2.29-8.467.936-.09,1.413-6.838,1.242-3.212,1.753-3.26a.454.454,0,0,0-.56-.462q-.234-2.47,3.457-7.032l5.111-.485Z"/><path class="cls-2" d="M251.1,61.827a17.478,17.478,0,0,1,4.663.811,4.222,4.222,0,0,1,2.027-.607q3.873.42,4.2,1.861-.6,3.624-2.4,3.708-2.038.351-1.979,1.633l-2.588-.394a101.546,101.546,0,0,1-16.636,6.936l-2.248,10.5,1.049.465q.038-1.029.978-1.073a.455.455,0,0,1,.537.489l8.328-2.585c5.5.43,5.5,1.6,5.516,1.944a3.923,3.923,0,0,1,.608,2.028l.024.513q-1.026.047-3.984,2.753l.024.513-.513.024a.453.453,0,0,1-.536-.489L237.61,95.973a3.934,3.934,0,0,1-.441,1.562l-1.049-.465c-2.051.1-1.467-1.938-2.144,5.63l-.513.024a.454.454,0,0,0,.537.489,31.4,31.4,0,0,1-.765,5.688.454.454,0,0,1,.537.489q4.614-.215,4.5-2.778a.453.453,0,0,1,.536.489c5.415-1.449,14.921-8.726,14.834-10.606l1.026-.048a3.768,3.768,0,0,0,1.12,2l.024.513c.169,3.646-10.253,13.363-17.578,17.927q-1.039,1.59-4.985,3.314l.024.513q-5.673-.423-8.347-2.7l-.513.024a.453.453,0,0,1-.489.536q-4-3.155-4.923-6.452a31.438,31.438,0,0,0,.764-5.688l-.513.024q1.874-3.941,1.529-11.376l1.026-.047-.561-1-.047-1.025q-.033-2.568.907-2.612a5.808,5.808,0,0,1-1.144-2.516q1.623-.075,2.7-8.347l1.026-.047-.56-1q.8-6.717,2.16-8.835a.454.454,0,0,0-.537-.489q.018-1.458,2.445-2.683-.058-1.281,1.98-1.633,2.649-.123,6.785,2.255,3.554-.934,3.494-2.217l1.049.465,7.573-2.92.024.513Z"/><path class="cls-2" d="M311.276,48.977a17.425,17.425,0,0,1,4.728.2,4.209,4.209,0,0,1,1.931-.867q3.9-.09,4.4,1.3-.125,3.672-1.893,3.989-1.976.615-1.749,1.878l-2.618-.053a101.62,101.62,0,0,1-15.587,9.049L300.8,69.1l1.1.324a.958.958,0,0,1,.83-1.191.454.454,0,0,1,.6.415l5.286-2.511q8.265-.438,8.356.068a3.913,3.913,0,0,1,.867,1.93l.091.506q-1.011.18-3.59,3.25l.091.505-.506.091a.453.453,0,0,1-.6-.415l-9.8,6.447a3.935,3.935,0,0,1-.234,1.607l-1.1-.325q-3.031.543-2.557,11.931l-.5.09a.454.454,0,0,0,.6.415,31.441,31.441,0,0,1-.015,5.739.453.453,0,0,1,.6.415q4.548-.814,4.095-3.341a.454.454,0,0,1,.6.415q7.768-3.216,7.27-5.995l1.011-.181a3.768,3.768,0,0,0,1.372,1.84l.091.505q.964,5.389-9.035,13.612-.823,1.712-4.51,3.936l.091.5q-5.679.323-8.628-1.583l-.5.09a.454.454,0,0,1-.415.6q-4.377-2.605-5.724-5.754a31.3,31.3,0,0,0,.016-5.739l-.506.09q1.342-4.152.031-11.478l1.011-.181-.687-.92L285.7,83.8q-.368-2.543.558-2.708a5.826,5.826,0,0,1-1.462-2.345q1.6-.286,1.583-8.627l1.011-.181-.686-.92q-.082-6.765.988-9.042a.454.454,0,0,0-.6-.415q-.173-1.448,2.074-2.979-.226-1.263,1.75-1.878,2.61-.467,7.021,1.351,3.4-1.392,3.175-2.655l1.1.324,7.126-3.883.091.5Z"/><path class="cls-2" d="M337.565,36.447l5.558-1q.135.758,3.484,1.983l.09.5a3.93,3.93,0,0,0-.233,1.607l.5-.091-.325,1.1.181,1.011a.454.454,0,0,0,.6.415.453.453,0,0,1-.415.6q1.38,4.794,3.2,6.207l.814,4.547q6.024,16.652,7.624,16.365l2.021-.362.271,1.516q.363,2.022-2.541,6.191A53.406,53.406,0,0,0,361.9,87.887l-.5.09.686.921a5.39,5.39,0,0,1-.053,2.616l.958,2.436a5.887,5.887,0,0,1-1.712,5q-2.274.408-7.888-3.281-4.043.725-5.581-7.865a9.889,9.889,0,0,0-1.915-4.872q-7.774,6.086-10.807,6.628-.489,8.432-3.605,8.989-5.043-5.353-7.654-4.887a5.813,5.813,0,0,0-1.554-2.85q-.437-2.442,2.361-7.2.459-8.6,3.711-14.223l-.091-.5-.686-.92q4.137-4.565,4.9-13.393l1.011-.181-.362-2.021a53.907,53.907,0,0,0,.86-12.67Zm1.892,30.95a41.432,41.432,0,0,0-1.079,8.536l.272,1.516q5.331-2.259,5.105-3.522a.453.453,0,0,1,.415-.6.454.454,0,0,0-.6-.415l.144-2.112a29.789,29.789,0,0,0-1.825-4.366l.505-.091q-1.4-4.441-2.33-4.276.332,1.852-1.116,5.415Z"/><path class="cls-2" d="M390.437,27.732l1.516-.271a7.392,7.392,0,0,0,3.808.882l.543,3.032-1.984,3.484-1.1-.324-7.632,3.974,1.282,1.334.091.506-.5.09-2.293-1.154-.5.091.271,1.516.958,2.435-1.011.181.181,1.011.687.92q-.505.09-3.138,5.777a.454.454,0,0,0,.6.414q.141,12.925-.642,16.8l.687.92-.34,6.84.686.921.038,3.122a.454.454,0,0,1,.6.414q-1.011.181-.973,3.3l.362,2.022q-1.011.18-.558,2.707l.686.92a.454.454,0,0,1-.415.6l.958,2.436.09.505q-.888,3.288-1.478,3.393l-2.526.453q-1.527-4.159-4.118-5.521-3.483-5.373-4.8-6.44l.052-2.617-1.41-4.962q1.938-.347.355-12.579-.427-8.7.031-11.478-.543-3.032.286-4.223l-.181-1.011a.907.907,0,0,0-1.191-.829q-.757.135-6.116,3.7l-1.516.272q-.2-1.1-3.3-.973a1.361,1.361,0,0,0-1.787-1.244l-.272-1.516q.153-2.548,12.881-9.607a77.519,77.519,0,0,0,14.163-8.273.454.454,0,0,0,.6.415q-.109-2.067,1.154-2.293l.181,1.011,2.021-.362q-.031-2.6,1.063-2.8a10.76,10.76,0,0,0,2.059,2.76Z"/><path class="cls-2" d="M405.267,65.752a17.079,17.079,0,0,0,9.547.9,4.215,4.215,0,0,0,.867,1.931l-1.011.181.091.505q1.584,8.842-3.711,14.223a.454.454,0,0,1-.6-.415l-1.93.867q-8.877-.061-9.223-2a7.151,7.151,0,0,1-2.926-4.691.454.454,0,0,1,.415-.6l-.686-.92a26.793,26.793,0,0,1,5.3-8.25l.506-.091,1.7.74.506-.091q1.01-.181.648-2.2Z"/><path class="cls-2" d="M194.912,144.358l.687.92-.325,1.1.686.92c-3.494,13.489-2.823,8.431-2.1,12.473l-2.267,10.777.506-.09q.108,2.066-1.154,2.292l.686.92a35.576,35.576,0,0,0-.9,9.548q-.42.075-1.621,5.5a.453.453,0,0,1,.595.415q-1.01.18-2.541,6.191c-2.056,2.106-5.407,2.537-5.287,3.211l-.5.09a.454.454,0,0,1-.6-.415l-.92.687c-6.118-1.164-7.021-2.05-7.473-4.577a.453.453,0,0,0,.415-.595l-1.011.181q-1.591-5.973-2.134-9l-.5.091q-4.954,16.01-9.5,16.824c-2.176-.827-4.4,1.791-8.461-1.133l-.98-5q-.549-3.552.377-3.718l-.686-.92a.958.958,0,0,1,.829-1.192l-1.372-1.84q2.195-13.951,1.2-19.509l.5-.091a.453.453,0,0,0-.6-.414c.337-7.825.288-14.3.188-14.866a.453.453,0,0,1-.6-.414q.757-.137,3.175-2.655l1.516-.271a6.31,6.31,0,0,1,6.1,2.036l.5-.09.09.5-.739,1.7a.453.453,0,0,1,.6.414l-.505.091a.454.454,0,0,0,.6.415l.046,13.259.5-.091-1.109,20.015q.925-.166,3.047-6.282.757-.137,1.244-1.787l-.5.09a55.434,55.434,0,0,0,3.1-8.9q1.094-.2,1.749-1.878l-.09-.5,3.537-.634a.453.453,0,0,0,.414-.6q3.689.21,3.9,1.388l.181,1.011a.907.907,0,0,1-.829,1.191l.957,2.436.905,5.053a.907.907,0,0,1-.83,1.191l.687.92.181,1.011-.053,2.617.5-.091-.324,1.1.09.505,1.011-.18a116.447,116.447,0,0,1,2.285-13.447l-.686-.92c.588-2.539,1.68-3.371,2.591-11.877a.454.454,0,0,1-.6-.415q1.095-.2,1.584-8.627c.617-.111-1.157,11.4-1.212,6.892q.974-3.3,1.479-3.394a.454.454,0,0,0-.6-.414q-.438-2.442,2.866-7.293l5.052-.905Z"/><path class="cls-2" d="M226.368,136.406a17.435,17.435,0,0,1,4.69.639,4.22,4.22,0,0,1,2-.683q3.886.278,4.263,1.705-.468,3.644-2.258,3.794-2.025.426-1.918,1.705l-2.6-.3a118.328,118.328,0,0,1-17.6,8.056l-.127,4.647,1.066.426q0-1.03.938-1.109c.341-.028-.338.672-.309,1.013l5.5-2q8.27.339,8.312.851a3.917,3.917,0,0,1,.683,2l.042.512q-1.023.086-3.878,2.9l.042.512-.511.042a.453.453,0,0,1-.554-.468l-9.5,4.956a3.927,3.927,0,0,1-.383,1.577l-1.066-.426q-3.069.256-3.664,11.639l-.511.042a.453.453,0,0,0,.554.469,31.4,31.4,0,0,1-.553,5.712.454.454,0,0,1,.554.469q4.6-.384,4.39-2.942a.454.454,0,0,1,.555.469c5.356-1.65,12.592-4.872,12.435-6.748l1.023-.085a3.768,3.768,0,0,0,1.194,1.96l.043.512c.3,3.637-7.756,9.333-14.907,14.165q-.98,1.627-4.859,3.5l.043.511c-3.789-.141-3.134-1.19-4.972-2.639l-.511.043a.454.454,0,0,1-.469.554q-4.115-3-5.159-6.265a31.514,31.514,0,0,0,.553-5.713l-.512.043q1.727-4.007,1.106-11.424l1.023-.086-.6-.98-.085-1.023q-.129-2.565.809-2.643a5.82,5.82,0,0,1-1.236-2.472q1.62-.137,2.385-8.441l1.023-.086-.6-.98q.554-6.743,1.832-8.91a.454.454,0,0,0-.555-.468q-.036-1.457,2.344-2.772-.107-1.278,1.918-1.7c1.762-.147.581.774,3.4,2.256,2.344-.711,8.116-2.953,8.045-3.806l1.066.426,7.459-3.2.043.511Z"/><path class="cls-2" d="M282.062,128.387l1.516-.271q6.651-.236,15.686,6.056a6.822,6.822,0,0,0,2.24,3.77q.489,5.649-.016,5.739a3.933,3.933,0,0,1,.777,1.426q.95,5.306-2.376,12.941l-8.62,13.016q.181,1.01-3.084,3.159-.1,1.845-6.584,6.916.317,1.767-6.26,5.814a5.024,5.024,0,0,0-3.68,2.745l-.5.09-.181-1.01-2.021.361-.92.687a1.362,1.362,0,0,0-1.788-1.245l-.18-1.01a41.562,41.562,0,0,0-2.693-6.3q-.063-1.814,3.047-6.282-4.125-2.65-4.532-4.925l.324-1.1a3.933,3.933,0,0,1-.776-1.425q2.239-25.345,3.794-28.318-1.071-5.979,9.759-9.569a29.783,29.783,0,0,1,2.941-1.048q3.106-.123,3.212.467Zm-4.729,34.743,1.011-.181q8.748-9.389,9.917-17.42,1.011-.182.287-4.224-1.429-6.522-6.229-5.663-4.548.815-4.722,14.4a80.975,80.975,0,0,1-.807,10.052Z"/><path class="cls-2" d="M316.907,123.19l.506-.09a51.4,51.4,0,0,1,13.008-5.98.957.957,0,0,0,1.192.829l.92-.686q6.84.34,7.473,3.877l-.92.686.867,1.93q.212,7-6.289,17.293l.686.92.09.5a.454.454,0,0,1-.415.6c4.646,12.031,4.192,12.986,5.965,15.45l-.324,1.1,1.734,3.861-.5.09a11.41,11.41,0,0,0,2.149,3.266l-.324,1.1a5.8,5.8,0,0,1,1.553,2.851q.181,1.01-.324,1.1l.958,2.436.362,2.021a3.574,3.574,0,0,1-1.388,3.9l-.5.091q-6.7-2.451-7.692-8.009Q332,169.25,330.752,162.26c-4.178-5.857-2.934-4.347-3.6-8.052q-.421.075-3.016-5.2l-3.537.633.452,2.527-.739,1.7.686.92-.648,2.2q.783,1.947,1.372,1.841a19.978,19.978,0,0,0-.3,9.962,3.923,3.923,0,0,1,.777,1.425q-1.84,1.373-1.569,2.888l-1.01.181q-8.755-5.211-9.261-5.121a3.948,3.948,0,0,0,.234-1.606,26.94,26.94,0,0,1-2.33-4.276q1.425-.777,1.335-1.282-.924-6.614-.166-6.749l-.686-.92.324-1.1a.453.453,0,0,0-.6-.415,89.288,89.288,0,0,1-.2-9.872l-.5.091.324-1.1-.686-.92q.669-1.6.068-8.356a4.2,4.2,0,0,1-.867-1.931l.92-.686q-.959-2.436-1.463-2.345l.324-1.1-1.282-1.335q2.148-4.992,4.148-5.958a5.393,5.393,0,0,0,2.436-.957q4.653-.225,5.271,3.227Zm2.262,12.632.506-.091q4.968-.889,9.4-11.59l-1.01.181q-9.751,6.7-9.073,10.489Z"/><path class="cls-2" d="M364.917,120.329l.453,2.526q-1.263.227-.935,6.426-.846,1.107-1.291,19-.757.135-1.44,6.515l-.5.091.686.92.09.5q-2.021.361-1.116,5.415a3.955,3.955,0,0,1,.777,1.425q-.506.09-3.59,3.25-4.118.3-4.766-3.318-1.534-1.29-2.293-1.154l-.452-2.526a3.771,3.771,0,0,1-1.373-1.84,55.409,55.409,0,0,1,.483-8.952,4.225,4.225,0,0,1-.867-1.931q.73-1.26.611-5.324.577-1.146,1.335-1.282l-.09-.5a.908.908,0,0,0-1.192-.83l1.7-19.6q-.376-2.106,6.35-5.309a19.659,19.659,0,0,1,7.745,5.392Z"/><path class="cls-2" d="M393.958,114.3q.322-3.837,4.479-4.26a32.634,32.634,0,0,1,7.544,2.179,90.905,90.905,0,0,0,.546,11.893.453.453,0,0,0-.554.469l.425,1.066-.6.98a18.093,18.093,0,0,0,.679,4.178l-.511-.043q.285,9.9,1.058,11.936l-.6.98a52.978,52.978,0,0,1,.421,7.247l-.343,4.092a.907.907,0,0,1-1.109.937.454.454,0,0,0,.468.555q-.236,2.813-10.66,4.256a4.961,4.961,0,0,0-3.408-2.347,48.661,48.661,0,0,0-2.382-8.442l.511.043q-1.4-1.748-4.638-12.237l.6-.98q-1.961-.165-2.936-7.973l-.512-.043.551,5.712-.512-.043.895,1.621-.6.98.512.043c-.2,6.451.22,5.43,1.121,11.058a.454.454,0,0,0-.555.468q.6.051.766,3.155l-.6.98a18.116,18.116,0,0,1,.68,4.178.455.455,0,0,0-.555.469q.512.042.68,4.178A16.886,16.886,0,0,1,380,169.94q-.078.938-4.861,2.682a21.426,21.426,0,0,0-4.475-1.921,5.812,5.812,0,0,1,1.281-2.983.453.453,0,0,1-.468-.554l.042-.512,1.024.086.429-5.115-2.046-.172.086-1.023a3.77,3.77,0,0,0,2.132-.851l-.851-2.132a4.224,4.224,0,0,0,.683-2l.172-2.046-.3-2.6a.454.454,0,0,0,.555-.468l-.512-.043c-.675-4.235-1.15-2.533-1.293-9.012a.453.453,0,0,0,.554-.469.453.453,0,0,1-.468-.554l.129-1.535.6-.98-.511-.043q-.633-11.9-2.081-12.022a.454.454,0,0,1,.554-.469l0-6.181.215-2.557.726-2.515q-.6-.049-.851-2.132l.511.043a.453.453,0,0,0-.468-.554q2.26-2.387,2.3-2.9a.453.453,0,0,1,.468.554l2.132-.851,7.969,3.245q2.9,5.308,2.851,9,1.569.732,2.6,5.884,1.785,8.393,4.428,8.614l-1.152,1.449q1.81,2.985,1.7,4.263l.511.043q.473-5.626.984-5.583-.512-.043-.894-1.621l1.453-5.029-1.023-.086.128-1.534.6-.98q-.6-.051-.851-2.132l.511.043q-.812-7.71-1.316-8.868Z"/><path class="cls-2" d="M414.949,105q4.834.786,6.788,2.957l-.053,2.616.452,2.527q.181,1.01,1.7.739l.09.505-2.526.452.09.506,1.011-.181q.272,1.515-1.026,5.92a.453.453,0,0,0,.6.414q.2,1.095.2,9.872l1.1.324q-.1-.589,2.489-3.574l-.686-.92-.181-1.011q1.937-.346,2.9-4.17,1.011-.181,2.4-4.08,1.01-.18.92-.686l-.272-1.516q2.361-1.379,5.717-8.846,1.011-.18,3.5-3.755l3.537-.633a7.553,7.553,0,0,1,1.734,3.861q-1.515.272-3.227,5.271l.09.505.686.92q-1.515.272-1.154,2.293l-1.1-.324q.106.59-1.893,3.989a4.107,4.107,0,0,1-.558,2.707l.272,1.516,1.282,1.335.09.505q-1.263.227-1.207,4.91a.958.958,0,0,1,1.192.829l-.92.686,1.048,2.941c1.87,10.443,1.269,10.423,3.556,13.49q.621,2.5,1.463,2.345a.453.453,0,0,1-.415.6l1.41,4.962.091.506-.324,1.1a.957.957,0,0,1,1.191.829q.272,1.516-3.5,3.756-7.044-4.389-7.963-9.525l-1.516.271.324-1.1-.5.091.324-1.1c-3.7-8.029-3.1-6.1-3.571-7.751l.324-1.1-.181-1.01a.908.908,0,0,0-1.192-.83l-.5.09-2.217,5.091q.165.925-2.9,4.17.316,1.769-5.015,4.027-1.347.242-4.947-4.329l-.5.091.3-9.963-.272-1.515,1.011-.181-.452-2.527a30.8,30.8,0,0,1,.105-5.233l-.5.09q.648-2.2.393-9.457l-.687-.92a4.216,4.216,0,0,0,.144-2.111l-.506.09a20.182,20.182,0,0,0,.574-8.446l-.506.09a6.323,6.323,0,0,0,.378-3.717Z"/><path class="cls-2" d="M458.665,127.008a17.07,17.07,0,0,0,9.547.9,4.225,4.225,0,0,0,.867,1.931l-1.011.181.091.5q1.584,8.843-3.711,14.223a.454.454,0,0,1-.6-.415l-1.93.868q-8.877-.063-9.223-2a7.148,7.148,0,0,1-2.926-4.691.454.454,0,0,1,.415-.6l-.686-.92a26.793,26.793,0,0,1,5.3-8.25l.506-.09,1.7.739.506-.091q1.01-.18.648-2.2Z"/><path class="cls-2" d="M142.058,216.15l.632.89-.333,1.04.631.891c-3.631,12.751-3.975,11.025-3.378,14.887l-2.182,14.668.483-.074q.057,1.968-1.15,2.154l.632.891a33.87,33.87,0,0,0-1.072,9.061q-.4.062-1.667,5.2a.432.432,0,0,1,.557.408q-.966.15-2.559,5.832-3.006,2.935-2.856,3.9l-.483.075a.431.431,0,0,1-.557-.408l-.891.632q-8.691-1.87-9.249-5.49a.433.433,0,0,0,.408-.558l-.966.15q-1.377-5.718-1.824-8.614l-.483.075q-5.078,15.115-9.422,15.786a44.321,44.321,0,0,1-8.767-5.564l-.074-.483q-.441-3.39.443-3.527l-.631-.891a.911.911,0,0,1,.816-1.115l-1.264-1.781q2.406-13.221,1.586-18.53l.482-.075a.431.431,0,0,0-.557-.408c.5-7.435,1.1-8.844,1.018-9.381a.432.432,0,0,1-.557-.408q.725-.111,3.081-2.452l1.448-.224a6,6,0,0,1,5.756,2.076l.483-.075.075.483-.742,1.6a.432.432,0,0,1,.557.408l-.482.075a.431.431,0,0,0,.557.408l-.76,7.858.483-.074-1.511,19.012q.885-.137,3.041-5.906.725-.111,1.225-1.671l-.483.074c1.207-2.493,2.645-13.7,3.538-16.8q1.046-.161,1.707-1.746l-.074-.483,3.378-.521a.432.432,0,0,0,.408-.558q3.5.284,3.677,1.409l.15.965a.864.864,0,0,1-.817,1.115l.469,10.745.745,4.826a.863.863,0,0,1-.816,1.115l.632.891.149.965-.11,2.488.483-.075-.334,1.04.075.483.965-.149a110.625,110.625,0,0,1,2.48-12.738l-.632-.891q.927-3.6,2.516-15.708a.432.432,0,0,1-.557-.408q1.046-.162,1.7-8.17c.59-.092-.263,7.749-.212,3.458q1-3.12,1.483-3.194a.432.432,0,0,0-.557-.408q-.362-2.334,2.892-6.871l4.826-.746Z"/><path class="cls-2" d="M168.305,214.253a16.586,16.586,0,0,1,4.493.3,4.005,4.005,0,0,1,1.856-.781q3.707,0,4.16,1.334-.2,3.49-1.892,3.751-1.893.54-1.707,1.747l-2.488-.11a96.637,96.637,0,0,1-15.033,8.252l-.584,6.946,1.04.333a.91.91,0,0,1,.816-1.114.432.432,0,0,1,.558.408l5.085-2.268c5.248-.152,3.883.943,3.932,1.265a3.722,3.722,0,0,1,.781,1.856l.075.483q-.966.148-3.489,3.009l.075.483-.483.075a.432.432,0,0,1-.557-.408l-5.451,4.9a3.735,3.735,0,0,1-.259,1.523l-1.04-.334q-2.9.447-2.7,11.29l-.483.075a.432.432,0,0,0,.557.408,29.878,29.878,0,0,1-.145,5.458.432.432,0,0,1,.557.408c2.9-.447,7.318-3.014,7.07-4.623a.431.431,0,0,1,.557.408c4.975-1.922,12.252-8.339,11.979-10.109l.965-.149a3.586,3.586,0,0,0,1.264,1.782l.074.482c.53,3.433-7.365,12.252-13.831,17.314-.548,1.073-5.106,3.826-7.477,5.181l.074.482q-5.409.177-8.17-1.7l-.483.075a.432.432,0,0,1-.408.557q-4.1-2.579-5.313-5.6a29.878,29.878,0,0,0,.145-5.458l-.483.074q1.373-3.918.291-10.917l.965-.149-.632-.891-.149-.965q-.292-2.426.593-2.563a5.531,5.531,0,0,1-1.338-2.264q1.528-.236,1.7-8.17l.965-.149-.632-.891c.051-4.291,1.2-9.677,1.918-11.1-.05-.321,2.437-1.012,2.115-.962-.087-.92.455.079,1.9-.858q-.186-1.206,1.707-1.746c1.663-.257,1.345-1.15,4.114.07q3.267-1.246,3.08-2.453l1.04.334,6.868-3.532.074.483Z"/><path class="cls-2" d="M221.584,210.944l1.6.741.483-.074.89-.632,4.235,1.817a25.35,25.35,0,0,1,2.044,3.638q-.725.111-1.409,3.676-5.789,7.32-5.341,10.215-1.7,1.251-3.151,8.394l-.482.074a.433.433,0,0,0-.558-.408l.632.891q-3.553,7.386-4.226,11.031l-.483.074.075.483.632.891q-.725.111-1.15,2.154.964-.148,1.189,1.3l1.448-.224a24.718,24.718,0,0,0,6.679-7.95q1.85-.285,5.529-5.8a.432.432,0,0,1,.557.408l.891-.631.965-.15-.333,1.04q.148.966,1.6.742l.891-.632a4.678,4.678,0,0,1,3.268,1.966q-.1,1.994-.667,2.08l.632.891q-4.788,4.2-4.489,6.129-5.407,3.389-4.972,6.2l.074.483,1.19,1.3-.483.075q-1.522-.26-1.6-.742-1.721,1.665-9.838,3.5-5.169-.932-7.02-3.857-3.782.584-8.508-7.087l.483-.075-.632-.891a4.016,4.016,0,0,0,.184-2,.431.431,0,0,1-.557-.408.431.431,0,0,0,.408-.557.863.863,0,0,1-1.114-.816l-.075-.483q.594-10.553,4.854-16.564a6.213,6.213,0,0,1,2.374-3.826q-.21-1.368,2.19-1.821l-.632-.891-.074-.482q1.689-.261,4.713-4.682a55.617,55.617,0,0,1,7.161-8.025Z"/><path class="cls-2" d="M266.218,201.853a16.554,16.554,0,0,1,4.493.294,4.02,4.02,0,0,1,1.856-.781q3.708,0,4.16,1.334-.2,3.49-1.891,3.752-1.895.538-1.707,1.746l-2.488-.11a96.777,96.777,0,0,1-15.034,8.253l.189,4.418,1.039.334a.912.912,0,0,1,.817-1.115.432.432,0,0,1,.557.408l5.086-2.268q7.872-.228,7.946.255a3.73,3.73,0,0,1,.781,1.856l.074.483q-.965.15-3.488,3.01l.074.483-.482.074a.431.431,0,0,1-.557-.408l-9.466,5.91a3.729,3.729,0,0,1-.259,1.522l-1.039-.333q-2.9.447-2.7,11.29l-.483.074a.432.432,0,0,0,.557.408,29.891,29.891,0,0,1-.145,5.459.431.431,0,0,1,.557.408q4.344-.671,3.972-3.084a.432.432,0,0,1,.557.408q7.461-2.883,7.052-5.537l.965-.149a3.588,3.588,0,0,0,1.264,1.781l.074.483q.795,5.148-8.9,12.742-.822,1.61-4.379,3.641l.074.483q-5.409.177-8.17-1.7l-.482.074a.433.433,0,0,1-.409.558q-4.1-2.578-5.313-5.6a29.891,29.891,0,0,0,.145-5.459l-.482.075q1.371-3.918.29-10.917l.965-.149-.631-.891-.149-.965q-.292-2.427.592-2.563a5.549,5.549,0,0,1-1.338-2.264q1.528-.237,1.7-8.17l.965-.149-.631-.891q.077-6.436,1.145-8.578a.431.431,0,0,0-.557-.408q-.131-1.38,2.041-2.787-.186-1.206,1.707-1.746,2.493-.386,6.647,1.444,3.267-1.245,3.081-2.452l1.04.333,6.867-3.532.075.483Z"/><path class="cls-2" d="M291.206,193.545l.074.483-.333,1.04,1.04.333.483-.074-.632-.891.891-.632q.086.563,2.786,2.041l.93,2.821-1.04-.334-.483.075.632.891q-1.99,3.108-1.742,4.717l-1.04-.334-.483.075a4.079,4.079,0,0,1,.855,2.338l-.482.075.632.891.074.482a4.02,4.02,0,0,1-.184,2.006l.631.891a17.152,17.152,0,0,0-.368,4.01l.855,2.339-.667,2.08.483-.075-.334,1.04.632.891q-1.126.174-1.37,7.13l-.482.075a3.745,3.745,0,0,1,.706,1.373q-1.06,5.929-1.589,12.106l1.6.742q1.046-.162,3.9-3.567,4.051-3.1,5.419-3.308l.632.89.223,1.448q.2,1.287-2.076,5.757a24.015,24.015,0,0,1-11.69,10.7q-2.895.447-2.97-.035l-.224-1.448q-3.3.51-7.8-5.714l-.149-.965a.431.431,0,0,1,.408-.557.432.432,0,0,0-.557-.408q.082-5.862,1.518-6.165l-.632-.891-.149-.965.742-1.6-.965.149q.9-8.541,1.628-8.653l-.632-.891a93.074,93.074,0,0,1,1.66-18.047.431.431,0,0,0-.557-.408l.11-2.488-.149-.965a3.729,3.729,0,0,0-.781-1.857,3.746,3.746,0,0,0,.259-1.522l-.224-1.448q3.689-1.724,3.414-3.493l3.862-.6a.864.864,0,0,0,.816-1.115,3.731,3.731,0,0,0,1.522.259A3.755,3.755,0,0,1,291.206,193.545Z"/><path class="cls-2" d="M331.48,191.772a16.563,16.563,0,0,1,4.493.294,4.015,4.015,0,0,1,1.856-.781q3.707,0,4.16,1.334-.2,3.49-1.892,3.752-1.893.538-1.707,1.746l-2.488-.11a96.713,96.713,0,0,1-15.033,8.253l.188,4.418,1.04.334a.911.911,0,0,1,.816-1.115.432.432,0,0,1,.557.408l5.086-2.268q7.872-.227,7.947.255a3.738,3.738,0,0,1,.78,1.856l.075.483q-.966.15-3.489,3.01l.075.483-.483.074a.432.432,0,0,1-.557-.408l-9.465,5.91a3.746,3.746,0,0,1-.259,1.522l-1.04-.333q-2.9.447-2.7,11.29l-.482.074a.431.431,0,0,0,.557.408,29.99,29.99,0,0,1-.145,5.459.432.432,0,0,1,.557.408q4.344-.671,3.971-3.084a.431.431,0,0,1,.557.408q7.462-2.883,7.052-5.537l.965-.149a3.588,3.588,0,0,0,1.264,1.781l.075.483q.795,5.148-8.9,12.742-.822,1.609-4.38,3.641l.075.483q-5.409.177-8.17-1.7l-.483.074a.432.432,0,0,1-.408.558q-4.1-2.578-5.313-5.6a29.99,29.99,0,0,0,.145-5.459l-.483.075q1.372-3.918.291-10.917l.965-.149-.632-.891-.149-.965q-.293-2.427.593-2.563a5.542,5.542,0,0,1-1.339-2.264q1.529-.236,1.7-8.17l.965-.149-.632-.891q.076-6.436,1.146-8.578a.431.431,0,0,0-.557-.408q-.13-1.38,2.04-2.787-.186-1.206,1.707-1.746,2.495-.385,6.648,1.444,3.267-1.245,3.08-2.452l1.04.333,6.868-3.531.074.482Z"/><path class="cls-2" d="M351.364,183.484l2.488.11,3.378-.522q.725-.112,1.672,1.224a.431.431,0,0,0-.408.557,2.159,2.159,0,0,1,2.786,2.041l.075.482-.334,1.04,4.827-.745q13.243-.646,13.554,1.365l2.154,1.15a17.839,17.839,0,0,1,1.637,4.195l-.483.075-1.04-.334.075.483,1.189,1.3q-.927,3.6-5.9,9.806.073.483-3.116,5.423l.074.483q6.976.9,10.14,4.858l1.19,1.3q-1.266,6.209-2.669,8.319a148.476,148.476,0,0,1-15.512,14.751l-.742,1.6-1.04-.333q-1.046.16-7.091,2.083a4.016,4.016,0,0,0-2-.184,7.872,7.872,0,0,1-3.23,1.487l-.631-.891a21.663,21.663,0,0,1,1.334-4.159.431.431,0,0,1-.557-.408,14.652,14.652,0,0,0,1.856-.781l-8.767-5.565-.855-2.338-.746-4.827.11-2.488a.431.431,0,0,1-.557-.408.864.864,0,0,0,.816-1.115l-.632-.89a154.129,154.129,0,0,0,2.845-23.173l-.482.075a11.175,11.175,0,0,0,.443-3.528l-.781-1.856q.164-6.943,3.783-7.5Zm14.578,36.789-.333,1.04-1.04-.334a.431.431,0,0,0-.408.557,3.771,3.771,0,0,0-1.523-.259q-3.861.6-2.743,7.837l.632.891-.7,5.05.483-.075q1.558-2.71,2.523-2.86-.087-.564,8.162-11.145l.334-1.04a.431.431,0,0,1-.557-.408l-.891.632-1.448.224Zm-5.321-18.452,1.931-.3a19.234,19.234,0,0,0,3.932-6.538l-.224-1.448a.432.432,0,0,0-.408.558l-1.04-.334q-5.1,2.189-4.34,7.095Zm18.157-.828.075.483.965-.149-.075-.483Z"/><path class="cls-2" d="M398.926,185.526l.483-.074a48.918,48.918,0,0,1,12.51-5.392.911.911,0,0,0,1.114.816l.891-.632q6.5.48,7.021,3.858l-.891.632.781,1.856q.041,6.664-6.377,16.305l.632.89.074.483a.431.431,0,0,1-.408.557q6.218,17.325,8.665,20.9l-.334,1.04,1.562,3.713-.483.074a10.849,10.849,0,0,0,1.97,3.155l-.333,1.04a5.531,5.531,0,0,1,1.412,2.747c.1.644-.012.99-.333,1.04l.855,2.339.3,1.93a3.4,3.4,0,0,1-1.408,3.677l-.483.075q-6.313-2.484-7.134-7.793-3.43-3.012-4.462-9.689-5.76-8.5-6.581-13.809-.4.061-2.751-5.012l-3.378.522.373,2.414-.742,1.6.632.891-.667,2.079q.7,1.869,1.263,1.782a19.011,19.011,0,0,0-.514,9.469,3.744,3.744,0,0,1,.706,1.373q-1.781,1.265-1.557,2.712l-.966.149q-8.21-5.156-8.692-5.082a3.729,3.729,0,0,0,.259-1.522,25.7,25.7,0,0,1-2.119-4.121q1.374-.7,1.3-1.189-.728-6.312,0-6.423l-.632-.891.334-1.04a.432.432,0,0,0-.557-.408,85.08,85.08,0,0,1,.031-9.395l-.483.075.334-1.04-.632-.891q.673-1.5.255-7.946a4.015,4.015,0,0,1-.781-1.856l.891-.632q-.855-2.338-1.338-2.264l.334-1.04-1.19-1.3q2.157-4.7,4.082-5.572a5.13,5.13,0,0,0,2.338-.856q4.431-.108,4.941,3.19Zm1.864,12.067.483-.074q4.746-.733,9.2-10.811l-.965.149q-9.429,6.15-8.869,9.771Z"/><path class="cls-2" d="M439.945,167.6l5.309-.82q.112.725,3.269,1.966l.075.483a3.729,3.729,0,0,0-.259,1.522l.482-.074-.333,1.04.149.965a.431.431,0,0,0,.557.408.431.431,0,0,1-.408.557q1.2,4.591,2.9,5.977l.671,4.344q5.35,15.975,6.879,15.74l1.931-.3.223,1.448q.3,1.932-2.558,5.832a50.9,50.9,0,0,0,3.088,10.395l-.482.074.631.891a5.118,5.118,0,0,1-.11,2.488l.856,2.339a5.6,5.6,0,0,1-1.742,4.717q-2.172.334-7.429-3.3-3.861.6-5.129-7.609a9.41,9.41,0,0,0-1.711-4.678q-7.534,5.612-10.43,6.059-.657,8.008-3.634,8.468-4.676-5.208-7.169-4.823a5.538,5.538,0,0,0-1.413-2.747q-.36-2.333,2.409-6.8a30.022,30.022,0,0,1,3.854-13.444l-.075-.483-.631-.891q4.038-4.248,4.968-12.628l.965-.149-.3-1.931a51.251,51.251,0,0,0,1.106-12.031Zm1.1,29.482a39.446,39.446,0,0,0-1.221,8.1l.224,1.448q5.123-2.026,4.937-3.234a.432.432,0,0,1,.408-.557.432.432,0,0,0-.558-.408l.185-2.005a28.3,28.3,0,0,0-1.636-4.195l.482-.075q-1.234-4.257-2.119-4.12.273,1.77-1.185,5.125Z"/><path class="cls-2" d="M490.435,160.519l1.448-.224a7.037,7.037,0,0,0,3.6.926l.448,2.9-1.966,3.269-1.04-.334-7.35,3.607,1.189,1.3.074.482-.482.075-2.155-1.15-.482.075.223,1.448.856,2.339-.965.149.149.965.631.891q-.482.073-3.115,5.423a.431.431,0,0,0,.557.408q-.161,12.3-.993,15.967l.632.891-.479,6.5.632.89-.035,2.971a.432.432,0,0,1,.557.408q-.966.15-1,3.12l.3,1.931q-.965.148-.592,2.562l.632.891a.432.432,0,0,1-.409.557l.856,2.339.075.483q-.921,3.106-1.484,3.194l-2.413.373q-1.358-3.992-3.791-5.345-3.19-5.19-4.422-6.236l.109-2.488L469,207.318q1.851-.285.624-11.957a64.855,64.855,0,0,1,.291-10.917q-.448-2.895.368-4.01l-.149-.965a.863.863,0,0,0-1.114-.817q-.724.113-5.9,3.383l-1.448.224q-.162-1.047-3.12-1a1.3,1.3,0,0,0-1.672-1.224l-.223-1.448q.2-2.421,12.471-8.845a73.787,73.787,0,0,0,13.66-7.547.431.431,0,0,0,.557.408q-.057-1.967,1.15-2.154l.149.965,1.931-.3q.029-2.475,1.075-2.637a10.25,10.25,0,0,0,1.895,2.673Z"/><path class="cls-2" d="M519.3,162.758a16.6,16.6,0,0,1,4.494.295,4.011,4.011,0,0,1,1.856-.781q3.707,0,4.159,1.334-.2,3.49-1.891,3.752-1.893.538-1.707,1.746l-2.488-.11a96.607,96.607,0,0,1-15.034,8.252l.189,4.419,1.04.334a.911.911,0,0,1,.816-1.115.431.431,0,0,1,.557.408l5.086-2.268q7.872-.228,7.946.255a3.726,3.726,0,0,1,.781,1.856l.075.483q-.966.149-3.489,3.01l.075.482-.483.075a.431.431,0,0,1-.557-.408l-9.465,5.91a3.766,3.766,0,0,1-.259,1.522l-1.04-.333q-2.9.447-2.7,11.29l-.483.074a.432.432,0,0,0,.558.408,29.85,29.85,0,0,1-.146,5.459.432.432,0,0,1,.558.408q4.344-.672,3.971-3.085a.432.432,0,0,1,.557.409q7.462-2.883,7.052-5.537l.965-.15a3.586,3.586,0,0,0,1.264,1.782l.074.483q.8,5.148-8.9,12.741-.822,1.609-4.379,3.642l.075.483q-5.409.176-8.171-1.7l-.482.074a.431.431,0,0,1-.408.557q-4.105-2.577-5.314-5.6a29.85,29.85,0,0,0,.146-5.459l-.483.075q1.371-3.918.29-10.917l.966-.149-.632-.891-.149-.966q-.292-2.425.592-2.562a5.549,5.549,0,0,1-1.338-2.264q1.529-.237,1.7-8.17l.966-.149-.632-.891q.077-6.436,1.146-8.578a.433.433,0,0,0-.558-.409q-.131-1.38,2.041-2.786-.186-1.206,1.707-1.746,2.495-.386,6.648,1.444,3.266-1.245,3.08-2.452l1.04.333,6.867-3.532.075.483Z"/><path class="cls-2" d="M541.883,191.118a16.24,16.24,0,0,0,9.061,1.072,4.02,4.02,0,0,0,.781,1.856l-.965.149.074.482q1.3,8.448-3.853,13.445a.432.432,0,0,1-.557-.408l-1.856.78q-8.442-.261-8.728-2.111a6.8,6.8,0,0,1-2.676-4.528.431.431,0,0,1,.408-.557l-.632-.891a25.513,25.513,0,0,1,5.231-7.727l.483-.074,1.6.741.483-.074q.964-.15.667-2.08Z"/></g></g></svg>